<?xml version="1.0" encoding="UTF-8" standalone="no"?>
<!DOCTYPE svg PUBLIC "-//W3C//DTD SVG 1.1//EN" "http://www.w3.org/Graphics/SVG/1.1/DTD/svg11.dtd">
<svg width="100%" height="100%" viewBox="0 0 2375 1558" version="1.1" xmlns="http://www.w3.org/2000/svg" xmlns:xlink="http://www.w3.org/1999/xlink" xml:space="preserve" xmlns:serif="http://www.serif.com/" style="fill-rule:evenodd;clip-rule:evenodd;stroke-linejoin:round;stroke-miterlimit:2;">
    <g transform="matrix(1,0,0,1,-83.3573,-83.3359)">
        <g transform="matrix(1,0,0,1,-2647.66,-7300.92)">
            <g transform="matrix(4.16667,0,0,4.16667,0,0)">
                <path d="M1207.99,1889.87C1200.08,1850.11 1179.61,1825.18 1156.96,1810.44C1134.31,1794.53 1107.02,1786.61 1079.82,1786.61L689.375,1786.59C675.731,1786.58 670.088,1800.23 670.088,1807.05C670.088,1808.14 670.087,1811.6 670.087,1811.6C670.087,1811.6 668.983,1984.08 671.168,2077.14C674.534,2131.63 729.024,2131.63 729.024,2131.63C729.024,2131.63 907.148,2131.64 993.388,2130.55C997.936,2130.55 1001.31,2130.55 1005.85,2129.46C1054.62,2117 1059.17,2071.6 1059.17,2046.59C1156.86,2050.97 1226.09,1981.75 1207.99,1889.87ZM1097.91,1979.47C1077.45,1981.74 1060.43,1980.56 1060.43,1980.56L1060.44,1852.38L1086.55,1852.38C1103.56,1852.38 1119.48,1859.21 1130.76,1872.85C1138.68,1881.95 1144.41,1894.41 1144.41,1912.6C1144.4,1954.54 1122.84,1971.55 1097.91,1979.47Z" style="fill:white;fill-rule:nonzero;"/>
            </g>
            <g transform="matrix(4.16667,0,0,4.16667,0,0)">
                <path d="M685.527,2076.52C683.409,1985.86 684.413,1818.7 684.457,1811.6L684.457,1807.14C684.519,1806.73 685.537,1800.95 689.374,1800.95L1079.82,1800.98C1104.76,1800.98 1129.22,1808.51 1148.7,1822.2C1148.84,1822.3 1148.98,1822.4 1149.12,1822.49C1172.6,1837.76 1187.67,1861.37 1193.9,1892.65C1201.16,1929.55 1192.97,1964.06 1170.81,1989.8C1145.84,2018.81 1105.39,2034.29 1059.81,2032.24C1055.92,2032.06 1052.06,2033.5 1049.24,2036.2C1046.42,2038.9 1044.8,2042.69 1044.8,2046.59C1044.8,2085.64 1030.92,2108.19 1002.43,2115.5C999.598,2116.18 997.557,2116.18 993.49,2116.18L993.207,2116.19C918.184,2117.13 773.245,2117.25 730.609,2117.26L729.059,2117.26C728.953,2117.26 718.284,2117.06 707.629,2111.89C694.074,2105.32 686.638,2093.42 685.527,2076.52ZM1222.11,1887.19L1222.11,1887.17C1222.1,1887.14 1222.1,1887.12 1222.09,1887.09L1222.07,1886.99C1212.37,1838.38 1185.7,1812.07 1165.01,1798.54C1140.78,1781.58 1110.52,1772.24 1079.82,1772.24L689.375,1772.22C667.415,1772.22 655.719,1792.45 655.718,1807.05L655.718,1811.51C655.707,1813.23 654.636,1985.2 656.802,2077.48C656.807,2077.66 656.815,2077.84 656.826,2078.03C658.992,2113.1 678.828,2129.86 695.087,2137.75C711.885,2145.9 728.329,2146 729.023,2146L729.091,2146C736.393,2146 908.899,2145.99 993.461,2144.92C998.372,2144.92 1003.01,2144.92 1009.19,2143.43L1009.41,2143.38C1035.14,2136.81 1053.47,2121.75 1063.89,2098.64C1068.82,2087.72 1071.8,2075.41 1072.97,2061.09C1096.57,2060.49 1118.77,2055.83 1138.99,2047.21C1160.3,2038.13 1178.33,2025.12 1192.59,2008.55C1220.61,1975.99 1231.09,1932.9 1222.11,1887.19Z" style="fill:rgb(3,4,4);fill-rule:nonzero;"/>
            </g>
            <g transform="matrix(4.16667,0,0,4.16667,0,0)">
                <path d="M1074.81,1966.47L1074.81,1866.75L1086.55,1866.75C1099.79,1866.75 1111.56,1872.17 1119.7,1882.02L1119.92,1882.28C1126.73,1890.1 1130.04,1900.02 1130.04,1912.6C1130.03,1941.29 1119.52,1957.09 1094.89,1965.34C1088.47,1966.01 1081.73,1966.39 1074.81,1966.47ZM1059.44,1994.9C1059.95,1994.93 1064.6,1995.24 1071.89,1995.24C1081.31,1995.24 1090.6,1994.74 1099.5,1993.75C1100.43,1993.65 1101.36,1993.45 1102.26,1993.17C1139.76,1981.26 1158.77,1954.16 1158.77,1912.6C1158.78,1893.11 1153.03,1876.6 1141.75,1863.58C1128.06,1847.1 1108.46,1838.01 1086.55,1838.01L1060.44,1838.01C1052.52,1838.01 1046.07,1844.46 1046.07,1852.38L1046.07,1980.56C1046.07,1988.08 1051.94,1994.38 1059.44,1994.9Z" style="fill:rgb(3,4,4);fill-rule:nonzero;"/>
            </g>
            <g transform="matrix(4.16667,0,0,4.16667,0,0)">
                <path d="M861.842,2058.88C866.389,2061.15 868.663,2058.88 868.663,2058.88C868.663,2058.88 931.073,2002.12 959.457,1969.27C984.387,1939.8 985.569,1890.95 943.544,1872.84C900.425,1854.65 865.219,1894.4 865.219,1894.4C834.565,1860.37 788.076,1862.64 766.515,1885.29C744.953,1907.95 752.868,1946.61 768.784,1969.26C783.521,1989.73 849.378,2048.68 859.568,2057.78C859.568,2056.6 860.747,2057.78 861.842,2058.88Z" style="fill:rgb(241,94,94);fill-rule:nonzero;"/>
            </g>
        </g>
    </g>
</svg>
