<?xml version="1.0" encoding="utf-8"?>
<!-- Generator: Adobe Illustrator 26.0.1, SVG Export Plug-In . SVG Version: 6.00 Build 0)  -->
<svg version="1.1" id="Layer_1" xmlns="http://www.w3.org/2000/svg" xmlns:xlink="http://www.w3.org/1999/xlink" x="0px" y="0px"
	 viewBox="0 0 1080 1080" style="enable-background:new 0 0 1080 1080;" xml:space="preserve">
<style type="text/css">
	.st0{display:none;}
	.st1{display:inline;}
	.st2{fill:#71B820;}
	.st3{fill:#FFFFFF;}
	.st4{fill:#004500;}
	.st5{fill:#005F00;}
	.st6{fill:#A3D26B;}
	.st7{clip-path:url(#SVGID_00000127020589862083058650000014848986664666513841_);}
	.st8{clip-path:url(#SVGID_00000107586648699531118470000012688787005618021288_);fill:#57A817;}
	.st9{clip-path:url(#SVGID_00000107586648699531118470000012688787005618021288_);fill:#56A717;}
	.st10{clip-path:url(#SVGID_00000107586648699531118470000012688787005618021288_);fill:#55A617;}
	.st11{clip-path:url(#SVGID_00000107586648699531118470000012688787005618021288_);fill:#54A617;}
	.st12{clip-path:url(#SVGID_00000107586648699531118470000012688787005618021288_);fill:#53A517;}
	.st13{clip-path:url(#SVGID_00000107586648699531118470000012688787005618021288_);fill:#52A417;}
	.st14{clip-path:url(#SVGID_00000107586648699531118470000012688787005618021288_);fill:#51A317;}
	.st15{clip-path:url(#SVGID_00000107586648699531118470000012688787005618021288_);fill:#50A317;}
	.st16{clip-path:url(#SVGID_00000107586648699531118470000012688787005618021288_);fill:#4FA217;}
	.st17{clip-path:url(#SVGID_00000107586648699531118470000012688787005618021288_);fill:#4EA117;}
	.st18{clip-path:url(#SVGID_00000107586648699531118470000012688787005618021288_);fill:#4DA017;}
	.st19{clip-path:url(#SVGID_00000107586648699531118470000012688787005618021288_);fill:#4C9F17;}
	.st20{clip-path:url(#SVGID_00000107586648699531118470000012688787005618021288_);fill:#4B9F17;}
	.st21{clip-path:url(#SVGID_00000107586648699531118470000012688787005618021288_);fill:#4A9E17;}
	.st22{clip-path:url(#SVGID_00000107586648699531118470000012688787005618021288_);fill:#499D17;}
	.st23{clip-path:url(#SVGID_00000107586648699531118470000012688787005618021288_);fill:#489C17;}
	.st24{clip-path:url(#SVGID_00000107586648699531118470000012688787005618021288_);fill:#469C18;}
	.st25{clip-path:url(#SVGID_00000107586648699531118470000012688787005618021288_);fill:#459B18;}
	.st26{clip-path:url(#SVGID_00000107586648699531118470000012688787005618021288_);fill:#449A18;}
	.st27{clip-path:url(#SVGID_00000107586648699531118470000012688787005618021288_);fill:#439918;}
	.st28{clip-path:url(#SVGID_00000107586648699531118470000012688787005618021288_);fill:#429918;}
	.st29{clip-path:url(#SVGID_00000107586648699531118470000012688787005618021288_);fill:#419818;}
	.st30{clip-path:url(#SVGID_00000107586648699531118470000012688787005618021288_);fill:#409718;}
	.st31{clip-path:url(#SVGID_00000107586648699531118470000012688787005618021288_);fill:#3F9618;}
	.st32{clip-path:url(#SVGID_00000107586648699531118470000012688787005618021288_);fill:#3E9518;}
	.st33{clip-path:url(#SVGID_00000107586648699531118470000012688787005618021288_);fill:#3D9518;}
	.st34{clip-path:url(#SVGID_00000107586648699531118470000012688787005618021288_);fill:#3C9418;}
	.st35{clip-path:url(#SVGID_00000107586648699531118470000012688787005618021288_);fill:#3B9318;}
	.st36{clip-path:url(#SVGID_00000107586648699531118470000012688787005618021288_);fill:#3A9218;}
	.st37{clip-path:url(#SVGID_00000107586648699531118470000012688787005618021288_);fill:#399218;}
	.st38{clip-path:url(#SVGID_00000107586648699531118470000012688787005618021288_);fill:#389118;}
	.st39{clip-path:url(#SVGID_00000107586648699531118470000012688787005618021288_);fill:#379018;}
	.st40{clip-path:url(#SVGID_00000023984699580956177560000009348447152604277431_);}
	.st41{fill:url(#SVGID_00000122712561187739698500000003471337682688531363_);}
</style>
<g class="st0">
	<g class="st1">
		<path class="st2" d="M924.74,756.87c-31.93-8.78-52.99-28.02-66.03-44.95c20.11-90.16,10.6-206.11-46.41-342.23
			C728.35,169.29,544.63,143.95,429.02,139.2S151.86,170.87,72.67,332.42S8.41,698.13,99.59,820.22
			c87.9,106.9,209.85,114.82,282.7,119.57c166.3,11.09,356.43-20.9,422.94-108.24c20.64,1.86,48.54,2.68,86.24,1.33
			c133.04-4.75,167.23-76.02,167.23-76.02S988.09,774.29,924.74,756.87z"/>
		<path class="st3" d="M445.86,952.19c-21.75,0-43.26-0.72-64.25-2.12c-74.57-4.86-199.27-12.99-289.97-123.31
			c-0.1-0.12-0.2-0.25-0.3-0.38C45.6,765.14,17.41,681.81,11.96,591.74c-5.52-91.2,12.76-184.9,51.46-263.85
			c36.84-75.16,93.9-130.29,169.59-163.85c73.69-32.67,147.49-37.13,196.43-35.12c53.14,2.18,132.45,8.99,207.33,42.78
			c84.89,38.3,147.14,103.58,185.02,194.02c52.38,125.05,68.94,243.72,48.01,343.61c15.52,18.72,34.9,31.37,57.67,37.63l0,0
			c59.91,16.47,128.1,0.1,128.78-0.07c3.87-0.96,7.94,0.42,10.45,3.51c2.51,3.09,3.02,7.35,1.29,10.94
			c-1.51,3.14-38.47,76.94-176.14,81.86c-31.75,1.13-59.28,0.83-81.97-0.9C745.96,919.9,591.26,952.18,445.86,952.19z M107.7,813.87
			c85.03,103.24,204.06,111.01,275.19,115.65c85.83,5.72,173.16-0.31,246-16.97c80.59-18.43,138.74-48.6,168.16-87.23
			c2.15-2.82,5.59-4.33,9.11-4.02c22.83,2.06,51.41,2.5,84.95,1.3c65.24-2.33,104.86-21.38,126.6-36.95
			c6.69-4.79,12.15-9.56,16.53-13.92c-27.18,3.71-70.87,6.44-112.24-4.93l0,0c-28.24-7.77-52.95-24.57-71.46-48.6
			c-1.86-2.42-2.56-5.54-1.89-8.52c21.57-96.7,5.71-212.9-45.86-336.02c-79.77-190.43-251.77-219.15-374.2-224.18
			c-75.1-3.08-259.2,9-346.68,187.47C6.09,491.63,16.95,692.15,107.7,813.87z"/>
	</g>
	<g class="st1">
		
			<ellipse transform="matrix(0.3857 -0.9226 0.9226 0.3857 -149.4294 421.4099)" class="st4" cx="241.73" cy="322.92" rx="69.69" ry="66.12"/>
	</g>
	<g class="st1">
		
			<ellipse transform="matrix(0.5582 -0.8297 0.8297 0.5582 -145.8988 314.8245)" class="st3" cx="222.67" cy="294.41" rx="15.67" ry="14.87"/>
	</g>
	<g class="st1">
		<path class="st5" d="M240.08,372.29c-7.74,0-15.53-1.78-22.82-5.38c-5.1-2.52-7.19-8.69-4.67-13.79c2.52-5.1,8.69-7.19,13.79-4.67
			c9.79,4.83,21.06,4.21,30.15-1.66c9.41-6.08,14.56-16.67,14.12-29.05c-0.2-5.68,4.24-10.45,9.93-10.65
			c5.73-0.18,10.45,4.24,10.65,9.93c0.7,19.8-7.88,36.95-23.52,47.06C259.26,369.53,249.7,372.29,240.08,372.29z"/>
	</g>
	<g class="st1">
		
			<ellipse transform="matrix(0.3857 -0.9226 0.9226 0.3857 45.1622 713.6594)" class="st4" cx="558.49" cy="322.92" rx="69.69" ry="66.12"/>
	</g>
	<g class="st1">
		
			<ellipse transform="matrix(0.5582 -0.8297 0.8297 0.5582 -5.9566 577.6379)" class="st3" cx="539.43" cy="294.41" rx="15.67" ry="14.87"/>
	</g>
	<g class="st1">
		<path class="st5" d="M556.83,372.29c-7.74,0-15.53-1.78-22.82-5.38c-5.1-2.52-7.19-8.69-4.67-13.79c2.52-5.1,8.69-7.19,13.79-4.67
			c9.79,4.83,21.06,4.21,30.15-1.66c9.41-6.08,14.56-16.67,14.12-29.05c-0.2-5.68,4.24-10.45,9.93-10.65
			c5.63-0.18,10.45,4.24,10.65,9.93c0.7,19.8-7.88,36.95-23.53,47.06C576.01,369.53,566.46,372.29,556.83,372.29z"/>
	</g>
	<g class="st1">
		<path class="st4" d="M330.82,421.11c-2.22,14.08,0,66.52,55.43,66.52s64.93-39.59,64.93-60.18c0-20.59-15.84-47.51-25.34-44.35
			s-9.5,26.08-34.84,25.71c-25.34-0.37-28-20.79-32.92-25.71C353.16,378.18,335.57,391.02,330.82,421.11z"/>
	</g>
	<g class="st1">
		<path class="st6" d="M474.95,194.63c-16.04-9.16-45.93-11.09-52.26,6.34c-6.34,17.42,11.09,32.35,26.92,38.35
			c15.84,6,31.68,4.41,39.59-8.26C497.12,218.39,486.03,200.97,474.95,194.63z"/>
	</g>
	<g class="st1">
		<circle class="st6" cx="372" cy="196.21" r="14.25"/>
	</g>
	<g class="st1">
		<defs>
			<path id="SVGID_1_" d="M330.82,421.11c-2.22,14.08,0,66.52,55.43,66.52s64.93-39.59,64.93-60.18c0-20.59-15.84-47.51-25.34-44.35
				s-9.5,26.08-34.84,25.71c-25.34-0.37-28-20.79-32.92-25.71C353.16,378.18,335.57,391.02,330.82,421.11z"/>
		</defs>
		<clipPath id="SVGID_00000031930092321523553060000017134483799769264815_">
			<use xlink:href="#SVGID_1_"  style="overflow:visible;"/>
		</clipPath>
		<g style="clip-path:url(#SVGID_00000031930092321523553060000017134483799769264815_);">
			<circle class="st5" cx="391.01" cy="476.54" r="41.18"/>
		</g>
	</g>
	<g class="st1">
		<path class="st3" d="M679.55,398.34c-18.35,2.92-37.18,9.25-37.39,23.29s20.15,16.06,36.27,13.01
			c16.13-3.05,29.87-11.01,33.01-22.66C714.57,400.32,697.9,395.42,679.55,398.34z"/>
	</g>
	<g class="st1">
		<path class="st3" d="M149.04,435.04c-18.35-2.92-37.18-9.25-37.39-23.29s20.15-16.06,36.27-13.01s29.87,11.01,33.01,22.66
			S167.39,437.97,149.04,435.04z"/>
	</g>
	<g class="st1">
		<g>
			<defs>
				<path id="SVGID_00000034085890240593352210000001920477632662437760_" d="M372,902.58c175.8,11.09,324.67-4.75,392.13-105
					c31.26-45.74,50.38-107.78,49.11-183.5c-1.05-62.26-66.84-6.64-193.65-2.16s-177.54-29.84-299.88-58.19S57.28,589.79,86,689.01
					c11.62,40.14,29.35,76.77,52.96,107.18C220.93,901.77,372,902.58,372,902.58z"/>
			</defs>
			<clipPath id="SVGID_00000056408920426373175530000003652769513933867676_">
				<use xlink:href="#SVGID_00000034085890240593352210000001920477632662437760_"  style="overflow:visible;"/>
			</clipPath>
			<polygon style="clip-path:url(#SVGID_00000056408920426373175530000003652769513933867676_);fill:#57A817;" points="
				814.51,591.35 57.28,586.11 57.28,525.39 814.51,525.39 			"/>
			<polygon style="clip-path:url(#SVGID_00000056408920426373175530000003652769513933867676_);fill:#57A817;" points="
				814.51,601.13 57.28,595.89 57.28,586.11 814.51,591.35 			"/>
			<polygon style="clip-path:url(#SVGID_00000056408920426373175530000003652769513933867676_);fill:#56A717;" points="
				814.51,610.91 57.28,605.67 57.28,595.89 814.51,601.13 			"/>
			<polygon style="clip-path:url(#SVGID_00000056408920426373175530000003652769513933867676_);fill:#55A617;" points="
				814.51,620.69 57.28,615.44 57.28,605.67 814.51,610.91 			"/>
			<polygon style="clip-path:url(#SVGID_00000056408920426373175530000003652769513933867676_);fill:#54A617;" points="
				814.51,630.46 57.28,625.22 57.28,615.44 814.51,620.69 			"/>
			<polygon style="clip-path:url(#SVGID_00000056408920426373175530000003652769513933867676_);fill:#53A517;" points="
				814.51,640.24 57.28,635 57.28,625.22 814.51,630.46 			"/>
			<polygon style="clip-path:url(#SVGID_00000056408920426373175530000003652769513933867676_);fill:#52A417;" points="
				814.51,650.02 57.28,644.78 57.28,635 814.51,640.24 			"/>
			<polygon style="clip-path:url(#SVGID_00000056408920426373175530000003652769513933867676_);fill:#51A317;" points="
				814.51,659.8 57.28,654.55 57.28,644.78 814.51,650.02 			"/>
			<polygon style="clip-path:url(#SVGID_00000056408920426373175530000003652769513933867676_);fill:#50A317;" points="
				814.51,669.57 57.28,664.33 57.28,654.55 814.51,659.8 			"/>
			<polygon style="clip-path:url(#SVGID_00000056408920426373175530000003652769513933867676_);fill:#4FA217;" points="
				814.51,679.35 57.28,674.11 57.28,664.33 814.51,669.57 			"/>
			<polygon style="clip-path:url(#SVGID_00000056408920426373175530000003652769513933867676_);fill:#4EA117;" points="
				814.51,689.13 57.28,683.89 57.28,674.11 814.51,679.35 			"/>
			<polygon style="clip-path:url(#SVGID_00000056408920426373175530000003652769513933867676_);fill:#4DA017;" points="
				814.51,698.91 57.28,693.66 57.28,683.89 814.51,689.13 			"/>
			<polygon style="clip-path:url(#SVGID_00000056408920426373175530000003652769513933867676_);fill:#4C9F17;" points="
				814.51,708.68 57.28,703.44 57.28,693.66 814.51,698.91 			"/>
			<polygon style="clip-path:url(#SVGID_00000056408920426373175530000003652769513933867676_);fill:#4B9F17;" points="
				814.51,718.46 57.28,713.22 57.28,703.44 814.51,708.68 			"/>
			<polygon style="clip-path:url(#SVGID_00000056408920426373175530000003652769513933867676_);fill:#4A9E17;" points="
				814.51,728.24 57.28,723 57.28,713.22 814.51,718.46 			"/>
			<polygon style="clip-path:url(#SVGID_00000056408920426373175530000003652769513933867676_);fill:#499D17;" points="
				814.51,738.01 57.28,732.77 57.28,723 814.51,728.24 			"/>
			<polygon style="clip-path:url(#SVGID_00000056408920426373175530000003652769513933867676_);fill:#489C17;" points="
				814.51,747.79 57.28,742.55 57.28,732.77 814.51,738.01 			"/>
			<polygon style="clip-path:url(#SVGID_00000056408920426373175530000003652769513933867676_);fill:#469C18;" points="
				814.51,757.57 57.28,752.33 57.28,742.55 814.51,747.79 			"/>
			<polygon style="clip-path:url(#SVGID_00000056408920426373175530000003652769513933867676_);fill:#459B18;" points="
				814.51,767.35 57.28,762.11 57.28,752.33 814.51,757.57 			"/>
			<polygon style="clip-path:url(#SVGID_00000056408920426373175530000003652769513933867676_);fill:#449A18;" points="
				814.51,777.12 57.28,771.88 57.28,762.11 814.51,767.35 			"/>
			<polygon style="clip-path:url(#SVGID_00000056408920426373175530000003652769513933867676_);fill:#439918;" points="
				814.51,786.9 57.28,781.66 57.28,771.88 814.51,777.12 			"/>
			<polygon style="clip-path:url(#SVGID_00000056408920426373175530000003652769513933867676_);fill:#429918;" points="
				814.51,796.68 57.28,791.44 57.28,781.66 814.51,786.9 			"/>
			<polygon style="clip-path:url(#SVGID_00000056408920426373175530000003652769513933867676_);fill:#419818;" points="
				814.51,806.46 57.28,801.22 57.28,791.44 814.51,796.68 			"/>
			<polygon style="clip-path:url(#SVGID_00000056408920426373175530000003652769513933867676_);fill:#409718;" points="
				814.51,816.23 57.28,810.99 57.28,801.22 814.51,806.46 			"/>
			<polygon style="clip-path:url(#SVGID_00000056408920426373175530000003652769513933867676_);fill:#3F9618;" points="
				814.51,826.01 57.28,820.77 57.28,810.99 814.51,816.23 			"/>
			<polygon style="clip-path:url(#SVGID_00000056408920426373175530000003652769513933867676_);fill:#3E9518;" points="
				814.51,835.79 57.28,830.55 57.28,820.77 814.51,826.01 			"/>
			<polygon style="clip-path:url(#SVGID_00000056408920426373175530000003652769513933867676_);fill:#3D9518;" points="
				814.51,845.57 57.28,840.33 57.28,830.55 814.51,835.79 			"/>
			<polygon style="clip-path:url(#SVGID_00000056408920426373175530000003652769513933867676_);fill:#3C9418;" points="
				814.51,855.34 57.28,850.1 57.28,840.33 814.51,845.57 			"/>
			<polygon style="clip-path:url(#SVGID_00000056408920426373175530000003652769513933867676_);fill:#3B9318;" points="
				814.51,865.12 57.28,859.88 57.28,850.1 814.51,855.34 			"/>
			<polygon style="clip-path:url(#SVGID_00000056408920426373175530000003652769513933867676_);fill:#3A9218;" points="
				814.51,874.9 57.28,869.66 57.28,859.88 814.51,865.12 			"/>
			<polygon style="clip-path:url(#SVGID_00000056408920426373175530000003652769513933867676_);fill:#399218;" points="
				814.51,884.68 57.28,879.43 57.28,869.66 814.51,874.9 			"/>
			<polygon style="clip-path:url(#SVGID_00000056408920426373175530000003652769513933867676_);fill:#389118;" points="
				814.51,894.45 57.28,889.21 57.28,879.43 814.51,884.68 			"/>
			<polygon style="clip-path:url(#SVGID_00000056408920426373175530000003652769513933867676_);fill:#379018;" points="
				814.51,904.23 57.28,898.99 57.28,889.21 814.51,894.45 			"/>
			<polygon style="clip-path:url(#SVGID_00000056408920426373175530000003652769513933867676_);fill:#379018;" points="
				57.28,898.99 814.51,904.23 814.51,913.66 57.28,913.66 			"/>
		</g>
	</g>
</g>
<g>
	<g>
		<path class="st2" d="M926.1,754.39c-31.63-8.7-52.49-27.76-65.41-44.53c19.92-89.31,10.5-204.17-45.97-339
			c-83.15-198.5-265.13-223.6-379.65-228.31c-114.52-4.71-274.54,31.38-352.98,191.39S18.43,696.2,108.75,817.14
			c87.07,105.89,207.87,113.74,280.03,118.44c164.72,10.98,353.06-20.7,418.95-107.21c20.44,1.84,48.08,2.65,85.42,1.32
			c131.78-4.71,165.65-75.3,165.65-75.3S988.85,771.64,926.1,754.39z"/>
		<path class="st3" d="M451.75,947.86c-21.54,0-42.85-0.71-63.65-2.1c-73.86-4.82-197.38-12.87-287.23-122.14
			c-0.1-0.12-0.2-0.25-0.29-0.37c-45.31-60.67-73.23-143.21-78.63-232.43c-5.46-90.34,12.64-183.15,50.97-261.36
			c36.5-74.45,93.01-129.06,167.98-162.3c72.99-32.37,146.1-36.78,194.57-34.79c52.64,2.16,131.2,8.91,205.37,42.37
			c84.09,37.94,145.75,102.6,183.27,192.18c51.88,123.87,68.29,241.41,47.56,340.36c15.37,18.54,34.57,31.07,57.12,37.27l0,0
			c59.34,16.32,126.89,0.1,127.56-0.07c3.83-0.95,7.86,0.41,10.35,3.47c2.49,3.06,2.99,7.28,1.28,10.84
			c-1.49,3.11-38.1,76.21-174.48,81.08c-31.45,1.12-58.73,0.82-81.19-0.89C749.01,915.87,595.77,947.85,451.75,947.86z
			 M116.78,810.85c84.22,102.27,202.13,109.96,272.59,114.56c85.01,5.67,171.52-0.3,243.67-16.81
			c79.83-18.26,137.43-48.14,166.57-86.4c2.12-2.79,5.53-4.29,9.03-3.98c22.61,2.04,50.92,2.47,84.14,1.28
			c64.62-2.31,103.86-21.18,125.41-36.6c6.63-4.75,12.03-9.47,16.37-13.79c-26.92,3.67-70.2,6.38-111.18-4.89l0,0
			c-27.97-7.69-52.45-24.34-70.78-48.14c-1.85-2.4-2.53-5.49-1.87-8.44c21.36-95.79,5.65-210.88-45.43-332.84
			C726.3,186.17,555.93,157.73,434.65,152.74c-74.42-3.06-256.75,8.92-343.41,185.69C16.14,491.65,26.89,690.28,116.78,810.85z"/>
	</g>
	<g>
		
			<ellipse transform="matrix(0.3857 -0.9226 0.9226 0.3857 -146.1181 429.618)" class="st4" cx="249.55" cy="324.53" rx="69.03" ry="65.5"/>
	</g>
	<g>
		
			<ellipse transform="matrix(0.5582 -0.8297 0.8297 0.5582 -143.9302 322.2954)" class="st3" cx="230.67" cy="296.3" rx="15.52" ry="14.73"/>
	</g>
	<g>
		<path class="st5" d="M247.92,373.44c-7.67,0-15.38-1.77-22.61-5.33c-5.05-2.49-7.12-8.61-4.63-13.66
			c2.49-5.05,8.61-7.12,13.66-4.63c9.7,4.79,20.86,4.17,29.86-1.64c9.32-6.02,14.42-16.51,13.99-28.77
			c-0.2-5.63,4.2-10.35,9.83-10.55c5.56-0.18,10.35,4.2,10.55,9.83c0.69,19.61-7.8,36.6-23.3,46.62
			C266.91,370.71,257.45,373.44,247.92,373.44z"/>
	</g>
	<g>
		
			<ellipse transform="matrix(0.3857 -0.9226 0.9226 0.3857 46.6341 719.1051)" class="st4" cx="563.32" cy="324.53" rx="69.03" ry="65.5"/>
	</g>
	<g>
		
			<ellipse transform="matrix(0.5582 -0.8297 0.8297 0.5582 -5.3108 582.6247)" class="st3" cx="544.43" cy="296.3" rx="15.52" ry="14.73"/>
	</g>
	<g>
		<path class="st5" d="M561.68,373.44c-7.67,0-15.38-1.77-22.61-5.33c-5.05-2.49-7.12-8.61-4.63-13.66
			c2.49-5.05,8.61-7.12,13.66-4.63c9.7,4.79,20.86,4.17,29.86-1.64c9.32-6.02,14.42-16.51,13.99-28.77
			c-0.2-5.63,4.2-10.35,9.83-10.55c5.61-0.18,10.35,4.2,10.55,9.83c0.69,19.61-7.8,36.6-23.3,46.62
			C580.67,370.71,571.21,373.44,561.68,373.44z"/>
	</g>
	<g>
		<path class="st4" d="M337.8,421.8c-2.2,13.95,0,65.89,54.91,65.89s64.32-39.22,64.32-59.61c0-20.39-15.69-47.06-25.1-43.93
			c-9.41,3.14-9.41,25.84-34.51,25.47s-27.74-20.59-32.61-25.47C359.93,379.27,342.51,391.99,337.8,421.8z"/>
	</g>
	<g>
		<path class="st6" d="M480.56,197.46c-15.88-9.08-45.5-10.98-51.77,6.28c-6.28,17.26,10.98,32.04,26.67,37.99
			c15.69,5.94,31.38,4.37,39.22-8.18C502.52,220.99,491.54,203.74,480.56,197.46z"/>
	</g>
	<g>
		<circle class="st6" cx="378.59" cy="199.03" r="14.12"/>
	</g>
	<g>
		<defs>
			<path id="SVGID_00000163760021355830225710000011679961689650740900_" d="M337.8,421.8c-2.2,13.95,0,65.89,54.91,65.89
				s64.32-39.22,64.32-59.61c0-20.39-15.69-47.06-25.1-43.93c-9.41,3.14-9.41,25.84-34.51,25.47s-27.74-20.59-32.61-25.47
				C359.93,379.27,342.51,391.99,337.8,421.8z"/>
		</defs>
		<clipPath id="SVGID_00000006696293643860253290000003031999042099394481_">
			<use xlink:href="#SVGID_00000163760021355830225710000011679961689650740900_"  style="overflow:visible;"/>
		</clipPath>
		<g style="clip-path:url(#SVGID_00000006696293643860253290000003031999042099394481_);">
			<circle class="st5" cx="397.41" cy="476.71" r="40.79"/>
		</g>
	</g>
	<g>
		<path class="st3" d="M683.23,399.25c-18.18,2.9-36.83,9.16-37.04,23.07s19.96,15.91,35.93,12.89
			c15.98-3.02,29.59-10.9,32.69-22.45S701.41,396.35,683.23,399.25z"/>
	</g>
	<g>
		<path class="st3" d="M157.73,435.6c-18.18-2.9-36.83-9.16-37.04-23.07c-0.21-13.9,19.96-15.91,35.93-12.89s29.59,10.9,32.69,22.45
			C192.42,433.64,175.91,438.5,157.73,435.6z"/>
	</g>
	
		<linearGradient id="SVGID_00000106113643614702660260000017942080228717615512_" gradientUnits="userSpaceOnUse" x1="453.9977" y1="587.9216" x2="451.8525" y2="897.8273">
		<stop  offset="0" style="stop-color:#57A817"/>
		<stop  offset="1" style="stop-color:#379018"/>
	</linearGradient>
	<path style="fill:url(#SVGID_00000106113643614702660260000017942080228717615512_);" d="M378.59,898.72
		c174.14,10.98,321.6-4.71,388.42-104.01c30.96-45.31,49.91-106.76,48.64-181.76c-1.04-61.67-66.21-6.57-191.82-2.14
		s-175.87-29.56-297.05-57.64S66.84,588.89,95.3,687.16c11.51,39.76,29.07,76.05,52.46,106.17
		C228.95,897.92,378.59,898.72,378.59,898.72z"/>
</g>
</svg>
