<?xml version="1.0" encoding="UTF-8" standalone="no"?>
<!DOCTYPE svg PUBLIC "-//W3C//DTD SVG 1.1//EN" "http://www.w3.org/Graphics/SVG/1.1/DTD/svg11.dtd">
<svg width="100%" height="100%" viewBox="0 0 540 611" version="1.1" xmlns="http://www.w3.org/2000/svg" xmlns:xlink="http://www.w3.org/1999/xlink" xml:space="preserve" xmlns:serif="http://www.serif.com/" style="fill-rule:evenodd;clip-rule:evenodd;stroke-linejoin:round;stroke-miterlimit:2;">
    <g transform="matrix(1,0,0,1,-389.569,-170.165)">
        <g transform="matrix(1,0,0,1,599.663,695.484)">
            <path d="M0,-284.303L0,-308.712C-8.173,-309.824 -16.477,-310.52 -24.95,-310.52C-127.04,-310.52 -210.094,-227.463 -210.094,-125.373C-210.094,-62.735 -178.799,-7.303 -131.054,26.217C-161.869,-6.864 -180.156,-51.179 -180.156,-99.848C-180.156,-200.472 -100.072,-281.965 0,-284.303" style="fill:rgb(37,244,238);fill-rule:nonzero;"/>
        </g>
        <g transform="matrix(1,0,0,1,604.033,170.165)">
            <path d="M0,510.548C45.549,510.548 83.236,473.795 84.928,428.652L85.312,26.103L158.312,26.13L158.199,25.525C156.666,17.243 155.824,8.72 155.824,0L55.235,0L55.073,403.127C53.383,448.27 16.229,484.502 -29.32,484.502C-43.477,484.502 -56.807,480.963 -68.542,474.787C-53.174,496.085 -28.211,510.548 0,510.548" style="fill:rgb(37,244,238);fill-rule:nonzero;"/>
        </g>
        <g transform="matrix(1,0,0,1,899.801,287.445)">
            <path d="M0,46.277L0,22.661C-28.096,22.661 -54.263,14.309 -76.209,0C-56.669,22.443 -30.126,39.827 0,46.277" style="fill:rgb(37,244,238);fill-rule:nonzero;"/>
        </g>
        <g transform="matrix(1,0,0,1,823.592,195.69)">
            <path d="M0,91.755C-21.408,67.168 -34.415,35.084 -34.415,0L-61.82,0C-54.725,38.326 -31.517,71.206 0,91.755" style="fill:rgb(254,44,85);fill-rule:nonzero;"/>
        </g>
        <g transform="matrix(1,0,0,1,574.712,570.654)">
            <path d="M0,-85.867C-46.622,-85.867 -85.115,-47.168 -85.115,-0.543C-85.115,31.923 -66.136,60.134 -39.222,74.298C-49.252,60.398 -55.234,43.394 -55.234,24.982C-55.234,-21.643 -17.301,-59.576 29.32,-59.576C38.024,-59.576 46.373,-58.14 54.271,-55.666L54.271,-158.357C46.099,-159.469 37.794,-160.165 29.32,-160.165C27.854,-160.165 26.407,-160.088 24.95,-160.054L24.562,-160.035L24.29,-82.303C16.393,-84.777 8.703,-85.867 0,-85.867" style="fill:rgb(254,44,85);fill-rule:nonzero;"/>
        </g>
        <g transform="matrix(1,0,0,1,899.801,780.689)">
            <path d="M0,-448.172L-0.468,-448.263L-0.491,-370.595C-52.649,-370.595 -101.11,-387.762 -140.562,-416.079L-140.531,-210.578C-140.531,-108.487 -222.999,-25.947 -325.089,-25.947C-364.541,-25.947 -401.12,-37.877 -431.192,-58.988C-397.368,-22.678 -349.189,0.091 -295.769,0.091C-193.678,0.091 -110.624,-82.963 -110.624,-185.053L-110.624,-389.471C-71.172,-361.155 -22.838,-344.468 29.32,-344.468L29.32,-445.058C19.265,-445.058 9.461,-446.147 0,-448.172" style="fill:rgb(254,44,85);fill-rule:nonzero;"/>
        </g>
        <g transform="matrix(1,0,0,1,759.857,380.835)">
            <path d="M0,189.276L0,-15.143C39.452,13.174 87.787,29.86 139.944,29.86L139.944,-48.318C109.818,-54.767 83.275,-70.947 63.735,-93.39C32.219,-113.939 9.471,-146.819 2.375,-185.145L-71.269,-185.145L-71.431,217.982C-73.122,263.124 -110.275,299.357 -155.824,299.357C-184.035,299.357 -208.998,285.415 -224.366,264.116C-251.28,249.953 -269.699,221.742 -269.699,189.276C-269.699,142.651 -231.767,104.718 -185.145,104.718C-176.441,104.718 -168.093,106.154 -160.194,108.628L-160.194,29.765C-260.267,32.103 -340.968,114.177 -340.968,214.801C-340.968,263.47 -322.064,307.785 -291.248,340.865C-261.176,361.977 -224.597,374.421 -185.145,374.421C-83.055,374.421 0,291.366 0,189.276" style="fill:white;fill-rule:nonzero;"/>
        </g>
    </g>
</svg>
